<svg width="190" height="190" viewBox="0 0 190 190" fill="none" xmlns="http://www.w3.org/2000/svg">
<g clip-path="url(#clip0_914_1667)">
<path d="M166.25 190H23.75C10.6281 190 0 179.372 0 166.25V23.75C0 10.6281 10.6281 0 23.75 0H166.25C179.372 0 190 10.6281 190 23.75V166.25C190 179.372 179.372 190 166.25 190Z" fill="#4292F7"/>
<path d="M126.469 47.6187C126.469 53.4375 126.469 59.2562 126.469 65.075C120.709 66.1437 112.041 68.2812 102.481 73.15C93.9312 77.4844 90.8437 80.8094 82.7687 85.025C76.9499 88.0531 68.0437 91.7344 55.753 93.6344C53.4374 94.3469 51.8937 95.5937 51.8937 96.9C51.8937 98.4437 54.1499 99.5125 54.9812 99.9281C61.3343 102.956 71.8437 98.0875 81.5218 93.1594C92.3874 87.6375 95.2374 85.5 100.759 82.65C107.528 79.1469 117.8 74.8125 131.872 72.1406C140.006 72.1406 148.141 72.1406 156.275 72.1406C156.216 101.056 156.216 113.822 156.275 114.475C156.156 115.306 146.181 113.525 138.284 114.237C133.356 114.712 127.537 117.562 115.9 123.322C106.222 128.131 105.569 129.081 97.3155 132.822C88.8249 136.622 83.4812 138.284 82.1749 138.7C75.8218 140.659 70.2999 141.728 66.2624 142.322C66.2624 136.444 66.2624 130.566 66.2624 124.687C72.3187 123.144 79.028 121.066 86.153 118.275C94.5249 115.009 98.3843 112.337 108.894 107.469C117.147 103.609 121.244 101.769 126.706 99.8687C131.575 98.2062 135.731 97.0781 138.522 96.3656C138.819 96.0094 139.531 95.1781 139.591 93.9312C139.709 91.5562 137.275 90.1312 137.156 90.0719C136.028 89.4187 134.841 89.4187 133.831 89.4781C129.022 89.8344 125.875 91.5562 125.875 91.5562C118.928 95.4156 111.209 97.7906 104.203 101.591C91.0811 108.716 84.3718 112.337 75.5843 115.247C68.578 117.562 62.6405 118.572 58.8405 119.106C51.1218 119.106 43.403 119.106 35.7437 119.106C35.7437 104.916 35.7437 90.725 35.7437 76.5344C47.1437 76.7125 55.753 74.8125 61.3343 73.15C68.9343 70.8344 68.578 69.7062 91.378 59.4937C99.928 55.6344 105.747 53.2594 113.287 50.9437C118.631 49.4 123.203 48.3312 126.469 47.6187Z" fill="white"/>
<mask id="mask0_914_1667" style="mask-type:luminance" maskUnits="userSpaceOnUse" x="35" y="47" width="122" height="96">
<path d="M126.469 47.6187C126.469 53.4375 126.469 59.2562 126.469 65.075C120.709 66.1437 112.041 68.2812 102.481 73.15C93.9312 77.4844 90.8437 80.8094 82.7687 85.025C76.9499 88.0531 68.0437 91.7344 55.753 93.6344C53.4374 94.3469 51.8937 95.5937 51.8937 96.9C51.8937 98.4437 54.1499 99.5125 54.9812 99.9281C61.3343 102.956 71.8437 98.0875 81.5218 93.1594C92.3874 87.6375 95.2374 85.5 100.759 82.65C107.528 79.1469 117.8 74.8125 131.872 72.1406C140.006 72.1406 148.141 72.1406 156.275 72.1406C156.216 101.056 156.216 113.822 156.275 114.475C156.156 115.306 146.181 113.525 138.284 114.237C133.356 114.712 127.537 117.562 115.9 123.322C106.222 128.131 105.569 129.081 97.3155 132.822C88.8249 136.622 83.4812 138.284 82.1749 138.7C75.8218 140.659 70.2999 141.728 66.2624 142.322C66.2624 136.444 66.2624 130.566 66.2624 124.687C72.3187 123.144 79.028 121.066 86.153 118.275C94.5249 115.009 98.3843 112.337 108.894 107.469C117.147 103.609 121.244 101.769 126.706 99.8687C131.575 98.2062 135.731 97.0781 138.522 96.3656C138.819 96.0094 139.531 95.1781 139.591 93.9312C139.709 91.5562 137.275 90.1312 137.156 90.0719C136.028 89.4187 134.841 89.4187 133.831 89.4781C129.022 89.8344 125.875 91.5562 125.875 91.5562C118.928 95.4156 111.209 97.7906 104.203 101.591C91.0811 108.716 84.3718 112.337 75.5843 115.247C68.578 117.562 62.6405 118.572 58.8405 119.106C51.1218 119.106 43.403 119.106 35.7437 119.106C35.7437 104.916 35.7437 90.725 35.7437 76.5344C47.1437 76.7125 55.753 74.8125 61.3343 73.15C68.9343 70.8344 68.578 69.7062 91.378 59.4937C99.928 55.6344 105.747 53.2594 113.287 50.9437C118.631 49.4 123.203 48.3312 126.469 47.6187Z" fill="white"/>
</mask>
<g mask="url(#mask0_914_1667)">
<path d="M23.75 70.7156L77.1875 55.9312L90.4281 83.9562L100.7 107.825L76.4156 119.225L52.9031 124.153H30.1625L23.75 70.7156Z" fill="url(#paint0_linear_914_1667)"/>
</g>
<mask id="mask1_914_1667" style="mask-type:luminance" maskUnits="userSpaceOnUse" x="35" y="47" width="122" height="96">
<path d="M126.469 47.6187C126.469 53.4375 126.469 59.2562 126.469 65.075C120.709 66.1437 112.041 68.2812 102.481 73.15C93.9312 77.4844 90.8437 80.8094 82.7687 85.025C76.9499 88.0531 68.0437 91.7344 55.753 93.6344C53.4374 94.3469 51.8937 95.5937 51.8937 96.9C51.8937 98.4437 54.1499 99.5125 54.9812 99.9281C61.3343 102.956 71.8437 98.0875 81.5218 93.1594C92.3874 87.6375 95.2374 85.5 100.759 82.65C107.528 79.1469 117.8 74.8125 131.872 72.1406C140.006 72.1406 148.141 72.1406 156.275 72.1406C156.216 101.056 156.216 113.822 156.275 114.475C156.156 115.306 146.181 113.525 138.284 114.237C133.356 114.712 127.537 117.562 115.9 123.322C106.222 128.131 105.569 129.081 97.3155 132.822C88.8249 136.622 83.4812 138.284 82.1749 138.7C75.8218 140.659 70.2999 141.728 66.2624 142.322C66.2624 136.444 66.2624 130.566 66.2624 124.687C72.3187 123.144 79.028 121.066 86.153 118.275C94.5249 115.009 98.3843 112.337 108.894 107.469C117.147 103.609 121.244 101.769 126.706 99.8687C131.575 98.2062 135.731 97.0781 138.522 96.3656C138.819 96.0094 139.531 95.1781 139.591 93.9312C139.709 91.5562 137.275 90.1312 137.156 90.0719C136.028 89.4187 134.841 89.4187 133.831 89.4781C129.022 89.8344 125.875 91.5562 125.875 91.5562C118.928 95.4156 111.209 97.7906 104.203 101.591C91.0811 108.716 84.3718 112.337 75.5843 115.247C68.578 117.562 62.6405 118.572 58.8405 119.106C51.1218 119.106 43.403 119.106 35.7437 119.106C35.7437 104.916 35.7437 90.725 35.7437 76.5344C47.1437 76.7125 55.753 74.8125 61.3343 73.15C68.9343 70.8344 68.578 69.7062 91.378 59.4937C99.928 55.6344 105.747 53.2594 113.287 50.9437C118.631 49.4 123.203 48.3312 126.469 47.6187Z" fill="white"/>
</mask>
<g mask="url(#mask1_914_1667)">
<path d="M148.378 129.022L100.7 100.7L111.684 71.725L121.837 47.7969L146.834 57.4156L166.666 70.9531L182.4 87.3406L148.378 129.022Z" fill="url(#paint1_linear_914_1667)"/>
</g>
</g>
<defs>
<linearGradient id="paint0_linear_914_1667" x1="78.5484" y1="74.3209" x2="46.7578" y2="103.434" gradientUnits="userSpaceOnUse">
<stop stop-color="#4292F7" stop-opacity="0"/>
<stop offset="1" stop-color="#4292F7" stop-opacity="0.2"/>
</linearGradient>
<linearGradient id="paint1_linear_914_1667" x1="112.977" y1="86.9892" x2="155.995" y2="89.7314" gradientUnits="userSpaceOnUse">
<stop stop-color="#4292F7" stop-opacity="0"/>
<stop offset="1" stop-color="#4292F7" stop-opacity="0.2"/>
</linearGradient>
<clipPath id="clip0_914_1667">
<rect width="190" height="190" fill="white"/>
</clipPath>
</defs>
</svg>
