<svg width="32" height="32" viewBox="0 0 32 32" fill="none" xmlns="http://www.w3.org/2000/svg">
<path d="M21.3333 5.33331H23.9999C24.7072 5.33331 25.3854 5.61426 25.8855 6.11436C26.3856 6.61446 26.6666 7.29274 26.6666 7.99998V26.6666C26.6666 27.3739 26.3856 28.0522 25.8855 28.5523C25.3854 29.0524 24.7072 29.3333 23.9999 29.3333H7.99992C7.29267 29.3333 6.6144 29.0524 6.1143 28.5523C5.6142 28.0522 5.33325 27.3739 5.33325 26.6666V7.99998C5.33325 7.29274 5.6142 6.61446 6.1143 6.11436C6.6144 5.61426 7.29267 5.33331 7.99992 5.33331H10.6666" stroke="#19B5D8" stroke-width="2" stroke-linecap="round" stroke-linejoin="round"/>
<path d="M20.0001 2.66669H12.0001C11.2637 2.66669 10.6667 3.26364 10.6667 4.00002V6.66669C10.6667 7.40307 11.2637 8.00002 12.0001 8.00002H20.0001C20.7365 8.00002 21.3334 7.40307 21.3334 6.66669V4.00002C21.3334 3.26364 20.7365 2.66669 20.0001 2.66669Z" stroke="#19B5D8" stroke-width="2" stroke-linecap="round" stroke-linejoin="round"/>
</svg>
