<svg width="24" height="24" viewBox="0 0 24 24" fill="none" xmlns="http://www.w3.org/2000/svg">
<mask id="path-1-inside-1_482_2811" fill="white">
<path d="M6.75 4.5H17.25C17.4489 4.5 17.6397 4.57902 17.7803 4.71967C17.921 4.86032 18 5.05109 18 5.25V19.6073C18.0001 19.6743 17.9822 19.7402 17.9482 19.7979C17.9142 19.8557 17.8653 19.9033 17.8066 19.9358C17.7479 19.9683 17.6816 19.9844 17.6146 19.9826C17.5476 19.9807 17.4823 19.9609 17.4255 19.9252L12 16.5225L6.5745 19.9245C6.51778 19.9601 6.45254 19.9799 6.38558 19.9818C6.31861 19.9837 6.25236 19.9676 6.19372 19.9352C6.13508 19.9029 6.08618 19.8554 6.05211 19.7977C6.01804 19.74 6.00005 19.6742 6 19.6073V5.25C6 5.05109 6.07902 4.86032 6.21967 4.71967C6.36032 4.57902 6.55109 4.5 6.75 4.5Z"/>
</mask>
<path d="M6.75 4.5V3.5V4.5ZM17.25 4.5V3.5V4.5ZM18 19.6073H17L17 19.6085L18 19.6073ZM17.4255 19.9252L17.9575 19.0785L17.9568 19.0781L17.4255 19.9252ZM12 16.5225L12.5313 15.6753L12.0001 15.3421L11.4688 15.6753L12 16.5225ZM6.5745 19.9245L6.04326 19.0773L6.0425 19.0778L6.5745 19.9245ZM6 19.6073H5L5 19.608L6 19.6073ZM6.75 5.5H17.25V3.5H6.75V5.5ZM17.25 5.5C17.1837 5.5 17.1201 5.47366 17.0732 5.42678L18.4874 4.01256C18.1592 3.68437 17.7141 3.5 17.25 3.5V5.5ZM17.0732 5.42678C17.0263 5.37989 17 5.3163 17 5.25H19C19 4.78587 18.8156 4.34075 18.4874 4.01256L17.0732 5.42678ZM17 5.25V19.6073H19V5.25H17ZM17 19.6085C16.9999 19.4968 17.0297 19.387 17.0864 19.2907L18.81 20.3052C18.9347 20.0933 19.0003 19.8519 19 19.606L17 19.6085ZM17.0864 19.2907C17.1431 19.1944 17.2245 19.115 17.3223 19.0609L18.2909 20.8107C18.506 20.6917 18.6853 20.5171 18.81 20.3052L17.0864 19.2907ZM17.3223 19.0609C17.4201 19.0068 17.5306 18.9799 17.6423 18.983L17.5869 20.9822C17.8327 20.989 18.0758 20.9298 18.2909 20.8107L17.3223 19.0609ZM17.6423 18.983C17.754 18.9861 17.8629 19.0191 17.9575 19.0785L16.8935 20.772C17.1017 20.9028 17.3411 20.9754 17.5869 20.9822L17.6423 18.983ZM17.9568 19.0781L12.5313 15.6753L11.4687 17.3697L16.8942 20.7724L17.9568 19.0781ZM11.4688 15.6753L6.04326 19.0773L7.10574 20.7717L12.5312 17.3697L11.4688 15.6753ZM6.0425 19.0778C6.13704 19.0184 6.24576 18.9854 6.35737 18.9822L6.41378 20.9814C6.65932 20.9745 6.89851 20.9019 7.1065 20.7712L6.0425 19.0778ZM6.35737 18.9822C6.46899 18.9791 6.5794 19.0059 6.67713 19.0598L5.71031 20.8106C5.92533 20.9294 6.16824 20.9884 6.41378 20.9814L6.35737 18.9822ZM6.67713 19.0598C6.77486 19.1138 6.85636 19.193 6.91315 19.2891L5.19108 20.3062C5.316 20.5177 5.49529 20.6919 5.71031 20.8106L6.67713 19.0598ZM6.91315 19.2891C6.96993 19.3853 6.99992 19.4949 7 19.6065L5 19.608C5.00018 19.8536 5.06616 20.0947 5.19108 20.3062L6.91315 19.2891ZM7 19.6073V5.25H5V19.6073H7ZM7 5.25C7 5.3163 6.97366 5.37989 6.92678 5.42678L5.51256 4.01256C5.18437 4.34075 5 4.78587 5 5.25H7ZM6.92678 5.42678C6.87989 5.47366 6.8163 5.5 6.75 5.5V3.5C6.28587 3.5 5.84075 3.68437 5.51256 4.01256L6.92678 5.42678Z" fill="black" mask="url(#path-1-inside-1_482_2811)"/>
</svg>
