<svg width="16" height="17" viewBox="0 0 16 17" fill="none" xmlns="http://www.w3.org/2000/svg">
<path fill-rule="evenodd" clip-rule="evenodd" d="M4.01673 3.10191C3.62624 2.71135 2.99307 2.71131 2.60252 3.1018C2.21196 3.49229 2.21192 4.12546 2.60241 4.51601L6.58586 8.50006L2.60241 12.4841C2.21192 12.8747 2.21196 13.5078 2.60252 13.8983C2.99307 14.2888 3.62624 14.2888 4.01673 13.8982L7.99996 9.91438L11.9832 13.8982C12.3737 14.2888 13.0069 14.2888 13.3974 13.8983C13.788 13.5078 13.788 12.8747 13.3975 12.4841L9.41407 8.50006L13.3975 4.51601C13.788 4.12546 13.788 3.49229 13.3974 3.1018C13.0069 2.71131 12.3737 2.71135 11.9832 3.10191L7.99996 7.08574L4.01673 3.10191Z" fill="#878787"/>
</svg>
