<svg width="32" height="32" viewBox="0 0 32 32" fill="none" xmlns="http://www.w3.org/2000/svg">
<path d="M28.0001 16.5232C28.0001 15.6549 27.9222 14.8201 27.7775 14.0186H16.245V18.7551H22.835C22.5511 20.2857 21.6884 21.5826 20.3916 22.4509V25.5232H24.3489C26.6643 23.3915 28.0001 20.2523 28.0001 16.5232Z" fill="#4285F4"/>
<path d="M16.245 28.4898C19.5511 28.4898 22.3229 27.3933 24.3489 25.5232L20.3915 22.4508C19.2951 23.1855 17.8925 23.6197 16.245 23.6197C13.0557 23.6197 10.3563 21.4657 9.3934 18.5714H5.30249V21.744C7.31733 25.7458 11.4583 28.4898 16.245 28.4898Z" fill="#34A853"/>
<path d="M9.39332 18.5714C9.14842 17.8367 9.00928 17.052 9.00928 16.2449C9.00928 15.4379 9.14842 14.6531 9.39332 13.9184V10.7458H5.30241C4.44527 12.4522 3.99924 14.3354 4 16.2449C4 18.2208 4.4731 20.0909 5.30241 21.744L9.39332 18.5714Z" fill="#FBBC05"/>
<path d="M16.245 8.87013C18.0427 8.87013 19.6568 9.48794 20.9259 10.7013L24.4379 7.18924C22.3173 5.21336 19.5455 4 16.245 4C11.4583 4 7.31733 6.74397 5.30249 10.7458L9.3934 13.9184C10.3563 11.0241 13.0557 8.87013 16.245 8.87013Z" fill="#EA4335"/>
</svg>
